<svg width="18" height="18" viewBox="0 0 18 18" fill="none" xmlns="http://www.w3.org/2000/svg">
<path fill-rule="evenodd" clip-rule="evenodd" d="M16 9C16 12.866 12.866 16 9 16C5.13401 16 2 12.866 2 9C2 5.13401 5.13401 2 9 2C12.866 2 16 5.13401 16 9ZM10.8562 6.31889C11.084 6.09108 11.4533 6.09108 11.6811 6.31889C11.9089 6.54669 11.9089 6.91604 11.6811 7.14384L9.82496 9L11.6811 10.8562C11.9089 11.084 11.9089 11.4533 11.6811 11.6811C11.4533 11.9089 11.084 11.9089 10.8562 11.6811L9 9.82496L7.14384 11.6811C6.91604 11.9089 6.54669 11.9089 6.31889 11.6811C6.09108 11.4533 6.09108 11.084 6.31889 10.8562L8.17504 9L6.31889 7.14384C6.09108 6.91604 6.09108 6.54669 6.31889 6.31889C6.54669 6.09108 6.91604 6.09108 7.14385 6.31889L9 8.17504L10.8562 6.31889Z" fill="#D9232E"/>
</svg>
