<svg width="18" height="18" viewBox="0 0 18 18" fill="none" xmlns="http://www.w3.org/2000/svg">
<path fill-rule="evenodd" clip-rule="evenodd" d="M9 2C12.866 2 16 5.134 16 9C16 12.867 12.866 16 9 16C5.134 16 2 12.867 2 9C2 5.134 5.134 2 9 2Z" fill="#20A76C"/>
<g filter="url(#filter0_d_1_405)">
<path fill-rule="evenodd" clip-rule="evenodd" d="M8.18367 11.8C8.32242 11.8 8.45669 11.7467 8.56411 11.6445L12.5252 7.71207C12.7355 7.50323 12.7355 7.16552 12.5252 6.95668C12.3148 6.74784 11.9747 6.74784 11.7643 6.95668L8.17919 10.5159L6.51826 8.86394C6.3079 8.6551 5.96774 8.6551 5.75738 8.86394C5.54702 9.07278 5.54702 9.41049 5.75738 9.61933L7.80323 11.6445C7.90617 11.7467 8.04492 11.8 8.18367 11.8Z" fill="white"/>
</g>
<defs>
<filter id="filter0_d_1_405" x="3.59961" y="5.80005" width="11.0834" height="9" filterUnits="userSpaceOnUse" color-interpolation-filters="sRGB">
<feFlood flood-opacity="0" result="BackgroundImageFix"/>
<feColorMatrix in="SourceAlpha" type="matrix" values="0 0 0 0 0 0 0 0 0 0 0 0 0 0 0 0 0 0 127 0" result="hardAlpha"/>
<feOffset dy="1"/>
<feGaussianBlur stdDeviation="1"/>
<feColorMatrix type="matrix" values="0 0 0 0 0 0 0 0 0 0 0 0 0 0 0 0 0 0 0.0733413 0"/>
<feBlend mode="normal" in2="BackgroundImageFix" result="effect1_dropShadow_1_405"/>
<feBlend mode="normal" in="SourceGraphic" in2="effect1_dropShadow_1_405" result="shape"/>
</filter>
</defs>
</svg>
